# xmcd
#
# Track frame offsets: 
#        150
#        14838
#        38945
#        51498
#        70908
#        93969
#        119428
#        137645
#        162634
#        183363
#        201642
#        221448
#        239446
#
# Disc length: 3641 seconds
#
# Revision: 1
# Processed by: cddbd v1.5.2PL0 Copyright (c) Steve Scherf et al.
# Submitted via: ExactAudioCopy v0.90b4
#
DISCID=cc0e370d
DTITLE=Toy Caldwell - Son of the South
DYEAR=1992
DGENRE=Southern Rock
TTITLE0=I Hear The South Calling Me
TTITLE1=Midnight Promises
TTITLE2=Love Turns Mean
TTITLE3=Fly Eagle Fly
TTITLE4=This Ol' Cowboy
TTITLE5=Night Life
TTITLE6=Trouble In Dixie
TTITLE7=Shadow Rider
TTITLE8=Wrong Right
TTITLE9=Texas On My Mind
TTITLE10=Mexico
TTITLE11=Why Am I Crying
TTITLE12=Can't You See - Live (Previously Unreleased)
EXTD=BLH-9707 - 2\n\nBlue Hat Records 1999\n\n(This album was rejected
EXTD=by Freedb in the rock style as a duplicate!]\n\n
EXTT0=
EXTT1=
EXTT2=
EXTT3=
EXTT4=
EXTT5=
EXTT6=
EXTT7=
EXTT8=
EXTT9=
EXTT10=
EXTT11=
EXTT12=
PLAYORDER=
